# xmcd
#
# Track frame offsets:
#	150
#	11776
#	28947
#	41793
#	58931
#	76196
#	88191
#	104976
#	120077
#	137465
#	167650
#	179883
#
# Disc length: 2590 seconds
#
# Revision: 1
# Processed by: cddbd v1.5.2PL0 Copyright (c) Steve Scherf et al.
# Submitted via: audiograbber 1.83.01
#
DISCID=a70a1c0c
DTITLE=Tom Astor - Ein Abend mit Tom Astor CD 1
DYEAR=2016
DGENRE=Country
TTITLE0=Jerry's Breakdown
TTITLE1=Take It Easy - nimm's leicht
TTITLE2=Hungrige Herzen
TTITLE3=Irgendwie wird's schon geh'n
TTITLE4=Ich habe mir geschworen
TTITLE5=Freunde
TTITLE6=mit einer starken Frau
TTITLE7=Ja, dann ist Sommer
TTITLE8=International Airport - Frankfurt am Main
TTITLE9=Trucker Medley
TTITLE10=Wir werden nicht älter, wir werden nur noch besser
TTITLE11=Take Me Home Country Roads  (feat: Michael Hirte)
EXTD=
EXTT0=
EXTT1=
EXTT2=
EXTT3=
EXTT4=
EXTT5=
EXTT6=
EXTT7=
EXTT8=
EXTT9=
EXTT10=
EXTT11=
PLAYORDER=
